#!OML:ASF H:\ManfredObstacles\Project 1\Capture day 2\Session 1\male.ASF
:FULLY-SPECIFIED
:DEGREES
381
root 1.23932 8.47414 -4.96843 -122.479 -1.18683 171.173
lowerback 18.8746 1.73882 -4.13459
upperback 10.3395 0.0521477 1.43643
thorax 0.532673 -0.7718 3.84891
lowerneck -26.7604 -2.39519 3.37917
upperneck 11.9088 -4.66939 0.956283
head 7.92249 -1.95873 -0.865379
rclavicle 4.77083e-015 -1.89839e-014
rhumerus 38.4872 -9.67492 -78.4657
rradius 56.5387
rwrist 25.3914
rhand -2.97102 -4.36695
rfingers 7.12502
rthumb 22.7418 -33.0466
lclavicle 4.77083e-015 -1.89839e-014
lhumerus 34.4488 -14.113 74.2914
lradius 31.1236
lwrist -48.9936
lhand -51.1979 31.3879
lfingers 7.12502
lthumb -23.7384 59.9417
rfemur -75.2567 -9.82822 12.1638
rtibia 134.971
rfoot -27.6542 -17.2754
rtoes -36.3141
lfemur -27.779 -5.71964 -21.8963
ltibia 74.9155
lfoot 7.05986 11.48
ltoes -14.8321
382
root 1.34238 8.52348 -5.05319 -122.417 -1.2224 170.4
lowerback 18.9614 1.7418 -4.6924
upperback 10.3682 -0.0418142 1.17793
thorax 0.530495 -0.834802 3.90806
lowerneck -26.8648 -2.48271 3.60553
upperneck 11.7692 -4.89663 1.08779
head 7.88699 -2.04544 -0.887416
rclavicle 1.27222e-014 -3.18055e-015
rhumerus 38.273 -10.2514 -80.0249
rradius 56.0638
rwrist 25.5338
rhand -3.40232 -3.99523
rfingers 7.12502
rthumb 22.3278 -32.7251
lclavicle 1.27222e-014 -3.18055e-015
lhumerus 34.9455 -14.6258 73.5932
lradius 30.2542
lwrist -48.9596
lhand -51.0435 31.7049
lfingers 7.12502
lthumb -23.5903 60.2779
rfemur -74.4775 -9.32425 12.269
rtibia 134.081
rfoot -27.4757 -17.6615
rtoes -36.2516
lfemur -28.5532 -4.77441 -21.5693
ltibia 75.6134
lfoot 6.63115 9.76446
ltoes -14.571
383
root 1.4459 8.57206 -5.13676 -122.352 -1.30256 169.636
lowerback 19.0374 1.74887 -5.2209
upperback 10.3971 -0.127063 0.951433
thorax 0.535046 -0.893975 3.98269
lowerneck -27.0177 -2.57283 3.8146
upperneck 11.6734 -5.11751 1.18012
head 7.87298 -2.13276 -0.920306
rclavicle 0 -2.48481e-016
rhumerus 38.0724 -10.8345 -81.4508
rradius 55.5164
rwrist 25.1716
rhand -3.95149 -3.43313
rfingers 7.12502
rthumb 21.8005 -32.2253
lclavicle 0 -2.48481e-016
lhumerus 35.476 -15.0977 72.9904
lradius 29.3529
lwrist -48.9462
lhand -50.8574 31.9826
lfingers 7.12502
lthumb -23.4118 60.5785
rfemur -73.7053 -8.79743 12.4174
rtibia 133.113
rfoot -27.2429 -18.1329
rtoes -36.1996
lfemur -29.4358 -3.82169 -21.1928
ltibia 76.5152
lfoot 6.14262 8.46945
ltoes -14.3763
384
root 1.5496 8.61909 -5.21852 -122.279 -1.4265 168.885
lowerback 19.0936 1.7848 -5.74399
upperback 10.4291 -0.172513 0.782938
thorax 0.55076 -0.935457 4.10836
lowerneck -27.236 -2.68568 3.98357
upperneck 11.6101 -5.35242 1.23472
head 7.87924 -2.23123 -0.96306
rclavicle 6.36111e-015 5.96354e-016
rhumerus 37.9033 -11.4112 -82.6182
rradius 54.9095
rwrist 24.4627
rhand -4.54651 -2.81172
rfingers 7.12502
rthumb 21.2291 -31.6692
lclavicle 6.36111e-015 5.96354e-016
lhumerus 36.049 -15.573 72.5064
lradius 28.4393
lwrist -48.9787
lhand -50.6306 32.3029
lfingers 7.12502
lthumb -23.1942 60.9264
rfemur -72.9571 -8.26594 12.6078
rtibia 132.082
rfoot -27.0058 -18.5944
rtoes -36.1098
lfemur -30.4437 -2.87153 -20.7677
ltibia 77.6456
lfoot 5.59109 7.64777
ltoes -14.2364
385
root 1.65331 8.66359 -5.29761 -122.191 -1.58498 168.151
lowerback 19.1333 1.81864 -6.25184
upperback 10.443 -0.213773 0.639001
thorax 0.556334 -0.973052 4.25065
lowerneck -27.4723 -2.79115 4.14588
upperneck 11.5988 -5.5723 1.26186
head 7.90512 -2.32364 -1.01311
rclavicle 3.33958e-014 4.19933e-014
rhumerus 37.729 -11.8909 -83.568
rradius 54.2628
rwrist 23.6798
rhand -5.122 -2.27221
rfingers 7.12502
rthumb 20.6762 -31.1909
lclavicle 3.33958e-014 4.19933e-014
lhumerus 36.6085 -16.0434 72.0447
lradius 27.5312
lwrist -49.0372
lhand -50.2978 32.595
lfingers 7.12502
lthumb -22.8749 61.2583
rfemur -72.2539 -7.74701 12.8354
rtibia 131.005
rfoot -26.7551 -19.0981
rtoes -36.0348
lfemur -31.5942 -1.93298 -20.3029
ltibia 79.0187
lfoot 5.0171 7.28789
ltoes -14.1699
386
root 1.75675 8.70541 -5.37417 -122.096 -1.7789 167.444
lowerback 19.1434 1.84189 -6.74224
upperback 10.4437 -0.261034 0.519236
thorax 0.564729 -1.0124 4.4095
lowerneck -27.7073 -2.88815 4.28979
upperneck 11.6104 -5.77197 1.27146
head 7.9384 -2.40826 -1.06393
rclavicle 1.27222e-014 -5.41688e-015
rhumerus 37.5579 -12.2451 -84.2833
rradius 53.562
rwrist 22.997
rhand -5.65506 -1.87363
rfingers 7.12502
rthumb 20.1639 -30.8472
lclavicle 1.27222e-014 -5.41688e-015
lhumerus 37.15 -16.5262 71.543
lradius 26.6416
lwrist -49.0947
lhand -49.8929 32.9004
lfingers 7.12502
lthumb -22.4863 61.6112
rfemur -71.5814 -7.24345 13.1031
rtibia 129.887
rfoot -26.4827 -19.6346
rtoes -35.9039
lfemur -32.8857 -1.01226 -19.792
ltibia 80.6352
lfoot 4.45735 7.31116
ltoes -14.1077
387
root 1.85955 8.74443 -5.44824 -121.996 -1.9964 166.763
lowerback 19.1302 1.87873 -7.21518
upperback 10.4371 -0.283216 0.41109
thorax 0.574755 -1.03785 4.56584
lowerneck -27.9628 -2.98709 4.46901
upperneck 11.6511 -5.9831 1.24668
head 7.98194 -2.4988 -1.13443
rclavicle -1.11319e-014 -2.38542e-014
rhumerus 37.4218 -12.5753 -84.7952
rradius 52.7666
rwrist 22.5255
rhand -6.14724 -1.6153
rfingers 7.12502
rthumb 19.6908 -30.638
lclavicle -1.11319e-014 -2.38542e-014
lhumerus 37.7223 -17.1332 70.9206
lradius 25.7884
lwrist -49.1239
lhand -49.3971 33.2095
lfingers 7.12502
lthumb -22.0104 61.9771
rfemur -70.9383 -6.77122 13.3995
rtibia 128.738
rfoot -26.2155 -20.2511
rtoes -35.8612
lfemur -34.3133 -0.111221 -19.2497
ltibia 82.483
lfoot 3.95944 7.59431
ltoes -13.9828
388
root 1.96185 8.78054 -5.51952 -121.902 -2.22722 166.111
lowerback 19.0613 1.84664 -7.64514
upperback 10.4316 -0.386205 0.25887
thorax 0.624631 -1.10265 4.66378
lowerneck -28.1272 -3.02476 4.67019
upperneck 11.6705 -6.11963 1.24543
head 8.00561 -2.55217 -1.18819
rclavicle -2.22639e-014 1.85864e-014
rhumerus 37.3453 -12.7393 -85.2784
rradius 51.8538
rwrist 22.3269
rhand -6.54042 -1.42881
rfingers 7.12502
rthumb 19.3128 -30.4898
lclavicle -2.22639e-014 1.85864e-014
lhumerus 38.2498 -17.725 70.0248
lradius 24.9942
lwrist -49.0676
lhand -48.851 33.5069
lfingers 7.12502
lthumb -21.486 62.3353
rfemur -70.3084 -6.32588 13.7185
rtibia 127.574
rfoot -25.9868 -20.9151
rtoes -35.8873
lfemur -35.8629 0.780395 -18.6819
ltibia 84.5448
lfoot 3.55158 8.02492
ltoes -13.7158
389
root 2.06341 8.81391 -5.58724 -121.823 -2.46453 165.484
lowerback 18.9692 1.84632 -8.08435
upperback 10.443 -0.44783 0.128113
thorax 0.701096 -1.15055 4.78124
lowerneck -28.2907 -3.07869 4.86992
upperneck 11.6755 -6.27702 1.24085
head 8.02328 -2.61629 -1.24554
rclavicle 1.90833e-014 6.16232e-015
rhumerus 37.342 -12.9382 -85.5885
rradius 50.8403
rwrist 22.2197
rhand -6.87586 -1.30422
rfingers 7.12502
rthumb 18.9902 -30.3972
lclavicle 1.90833e-014 6.16232e-015
lhumerus 38.8638 -18.5184 68.9204
lradius 24.2753
lwrist -48.8414
lhand -48.3081 33.7852
lfingers 7.12502
lthumb -20.9644 62.6722
rfemur -69.6764 -5.91859 14.0543
rtibia 126.413
rfoot -25.8371 -21.5695
rtoes -36.0799
lfemur -37.524 1.66835 -18.0949
ltibia 86.8019
lfoot 3.22327 8.54799
ltoes -13.3109
390
root 2.16413 8.8446 -5.65052 -121.767 -2.70523 164.884
lowerback 18.8546 1.88195 -8.51906
upperback 10.4768 -0.46074 0.00121643
thorax 0.807483 -1.17754 4.89023
lowerneck -28.4668 -3.15418 5.11036
upperneck 11.6742 -6.47617 1.21805
head 8.03748 -2.70015 -1.32127
rclavicle 9.54166e-015 1.87852e-014
rhumerus 37.4037 -13.2251 -85.7893
rradius 49.7461
rwrist 22.1424
rhand -7.15578 -1.17373
rfingers 7.12502
rthumb 18.721 -30.2929
lclavicle 9.54166e-015 1.87852e-014
lhumerus 39.5782 -19.5465 67.5679
lradius 23.6698
lwrist -48.4119
lhand -47.7717 34.0231
lfingers 7.12502
lthumb -20.449 62.9663
rfemur -69.0378 -5.55989 14.4143
rtibia 125.285
rfoot -25.7363 -22.2441
rtoes -36.3388
lfemur -39.2863 2.56224 -17.4902
ltibia 89.2339
lfoot 2.93163 9.1487
ltoes -12.8081
391
root 2.26385 8.87264 -5.70816 -121.735 -2.94568 164.301
lowerback 18.7303 1.9472 -8.96787
upperback 10.5422 -0.439064 -0.106585
thorax 0.949681 -1.19372 5.02035
lowerneck -28.6858 -3.25362 5.31705
upperneck 11.6779 -6.70298 1.21586
head 8.06059 -2.79573 -1.38972
rclavicle 1.59028e-014 -1.22253e-014
rhumerus 37.5499 -13.5571 -85.896
rradius 48.5988
rwrist 22.0024
rhand -7.39375 -1.04047
rfingers 7.12502
rthumb 18.4921 -30.1815
lclavicle 1.59028e-014 -1.22253e-014
lhumerus 40.4152 -20.758 65.9712
lradius 23.1931
lwrist -47.765
lhand -47.2108 34.1931
lfingers 7.12502
lthumb -19.9099 63.1932
rfemur -68.3871 -5.27417 14.7983
rtibia 124.226
rfoot -25.7166 -22.7693
rtoes -36.631
lfemur -41.149 3.45663 -16.8773
ltibia 91.8201
lfoot 2.62126 9.83578
ltoes -12.2782
392
root 2.36211 8.89844 -5.75933 -121.724 -3.19288 163.733
lowerback 18.5981 2.04426 -9.41457
upperback 10.6367 -0.375889 -0.193674
thorax 1.1223 -1.19452 5.16331
lowerneck -28.9264 -3.38946 5.48052
upperneck 11.6656 -6.96975 1.24234
head 8.08255 -2.90933 -1.44773
rclavicle -9.54166e-015 -1.82882e-014
rhumerus 37.7612 -13.9544 -85.9359
rradius 47.4194
rwrist 21.7844
rhand -7.64012 -0.888664
rfingers 7.12502
rthumb 18.2551 -30.0521
lclavicle -9.54166e-015 -1.82882e-014
lhumerus 41.3995 -22.1505 64.133
lradius 22.8534
lwrist -46.9154
lhand -46.6032 34.3223
lfingers 7.12502
lthumb -19.3257 63.382
rfemur -67.7306 -5.07522 15.2213
rtibia 123.266
rfoot -25.7127 -23.2318
rtoes -36.8905
lfemur -43.1225 4.35517 -16.2551
ltibia 94.5417
lfoot 2.21326 10.6
ltoes -11.7139
393
root 2.45889 8.92184 -5.80234 -121.7 -3.44511 163.173
lowerback 18.4553 2.13667 -9.84396
upperback 10.726 -0.311894 -0.286907
thorax 1.29409 -1.19411 5.28954
lowerneck -29.1779 -3.5443 5.616
upperneck 11.683 -7.25777 1.29295
head 8.11758 -3.02958 -1.49731
rclavicle -2.70347e-014 -1.74931e-014
rhumerus 37.9651 -14.3718 -86.0454
rradius 46.2485
rwrist 21.5694
rhand -7.95316 -0.710322
rfingers 7.12502
rthumb 17.9539 -29.9016
lclavicle -2.70347e-014 -1.74931e-014
lhumerus 42.4728 -23.6463 62.0553
lradius 22.6544
lwrist -45.9205
lhand -45.8184 34.2612
lfingers 7.12502
lthumb -18.571 63.3947
rfemur -67.132 -4.98138 15.6856
rtibia 122.441
rfoot -25.7222 -23.5651
rtoes -37.0457
lfemur -45.254 5.26227 -15.6386
ltibia 97.3801
lfoot 1.65309 11.4422
ltoes -11.1909
394
root 2.55369 8.94341 -5.83769 -121.659 -3.71853 162.624
lowerback 18.2958 2.21364 -10.2431
upperback 10.8176 -0.259032 -0.374543
thorax 1.47827 -1.19941 5.40617
lowerneck -29.443 -3.71492 5.69213
upperneck 11.718 -7.55376 1.38207
head 8.16415 -3.15065 -1.52696
rclavicle 3.65764e-014 -1.73937e-014
rhumerus 38.1806 -14.8 -86.265
rradius 45.0998
rwrist 21.445
rhand -8.32598 -0.494857
rfingers 7.12502
rthumb 17.5952 -29.7187
lclavicle 3.65764e-014 -1.73937e-014
lhumerus 43.6325 -25.1405 59.812
lradius 22.579
lwrist -44.8596
lhand -44.8431 33.9927
lfingers 7.12502
lthumb -17.6327 63.2132
rfemur -66.601 -4.98946 16.2068
rtibia 121.757
rfoot -25.7571 -23.7512
rtoes -36.9863
lfemur -47.5495 6.19069 -15.0184
ltibia 100.31
lfoot 0.890749 12.3582
ltoes -10.7205
395
root 2.64589 8.96307 -5.86534 -121.585 -4.01813 162.086
lowerback 18.1032 2.27624 -10.6166
upperback 10.8969 -0.210595 -0.443639
thorax 1.66694 -1.20523 5.52885
lowerneck -29.6756 -3.90689 5.70526
upperneck 11.7537 -7.85606 1.49632
head 8.20949 -3.27438 -1.53913
rclavicle -1.11319e-014 -3.08116e-015
rhumerus 38.3952 -15.2549 -86.5705
rradius 43.9804
rwrist 21.4356
rhand -8.75226 -0.255312
rfingers 7.12502
rthumb 17.1849 -29.5154
lclavicle -1.11319e-014 -3.08116e-015
lhumerus 44.8413 -26.5783 57.5189
lradius 22.6107
lwrist -43.7974
lhand -43.6389 33.3925
lfingers 7.12502
lthumb -16.4736 62.7131
rfemur -66.1694 -5.09468 16.7799
rtibia 121.208
rfoot -25.8125 -23.9003
rtoes -36.7573
lfemur -50.0367 7.15951 -14.4092
ltibia 103.309
lfoot -0.080764 13.3165
ltoes -10.3642
